<?xml version="1.0" encoding="utf-8"?>
<!-- Generator: Adobe Illustrator 20.1.0, SVG Export Plug-In . SVG Version: 6.00 Build 0)  -->
<svg version="1.1" id="Layer_1" xmlns="http://www.w3.org/2000/svg" xmlns:xlink="http://www.w3.org/1999/xlink" x="0px" y="0px"
	 viewBox="0 0 350 350" style="enable-background:new 0 0 350 350;" xml:space="preserve">
<style type="text/css">
	.st0{fill:#10284A;}
	.st1{fill:#C6901B;}
</style>
<title>ucsd-seal</title>
<g>
	<path class="st0" d="M175.4,7.1c-88.3,0-160.2,71-160.2,158.3s71.8,158.3,160.2,158.3s160.2-71,160.2-158.3S263.7,7.1,175.4,7.1z
		 M173.7,288.7c-69.4-0.5-125.3-57.1-124.8-126.5c0.4-67.5,54.1-122.6,121.6-124.8c0.6-1.6,1.2-3.1,2.1-4.5c0.2-0.3,0.7-0.3,1.4-0.1
		h0.1c0.1,0.1,0.2,0.1,0.3,0.2c0.3,0.2,0.5,0.2,0.8,0.5c0.8,1.2,1.6,2.5,2.2,3.8c32.8,0.8,64.1,14.4,87.1,37.9
		c23.2,23.3,36.2,54.9,36.1,87.8C300.3,232.3,243.5,288.7,173.7,288.7L173.7,288.7z"/>
	<path class="st1" d="M292.3,49.9C227.1-14,122.9-14,57.7,49.9c-63.8,62.5-64.9,164.9-2.4,228.8c0.8,0.8,1.6,1.6,2.4,2.4
		c65.2,63.8,169.4,63.8,234.6,0c63.8-62.5,64.9-164.9,2.5-228.7C294,51.5,293.1,50.7,292.3,49.9z M175.4,323.7
		c-88.3,0-160.2-71-160.2-158.3S87.1,7.1,175.4,7.1s160.2,71,160.2,158.3S263.7,323.7,175.4,323.7z"/>
	<path class="st1" d="M150.4,58.8l2.2,2.9l0,0l-47.2,7.4l0,0l3.1-4l0,0C110.9,64.8,150.4,58.8,150.4,58.8z"/>
	<path class="st1" d="M198.2,60c3.8-0.1,45.8,7.5,46.2,8.9c0.2,0.7,0.2-0.7,0.4,3c-1.9-1-40.9-7.7-49-8.9
		C196.3,61.7,197.1,60.7,198.2,60z"/>
	<polygon class="st1" points="62.4,247.2 66,252.3 61.5,255.6 57.7,250.5 	"/>
	<path class="st1" d="M83,265.8c1.6-2.2,5.3,0.1,6.3,0.9c4.1,2.9,3.5,5.1,2.8,6.6l0,0l-0.1,0.1l2.9,1.9l0.1-0.1l0,0
		c2.2-3.3,0.6-7.3-4.2-10.7c-4.4-3.1-8.7-3.3-10.8-0.5c-2.4,3.4,1.1,7.2,3.4,9.6c3.6,3.8,5.3,5.6,4,7.5c-0.4,0.5-1,0.9-1.7,1
		c-1.9,0.1-3.8-0.6-5.3-1.9c-1-0.6-4.1-3.1-4-5.9c0-0.7,0.3-1.4,0.7-2l0,0V272l-3-1.8l-0.1,0.2l0,0c-0.5,0.7-0.9,1.6-1,2.4
		c-0.5,3.3,1.4,6.5,5.8,9.6c2.8,2,5.6,2.9,8,2.4c1.4-0.2,2.6-0.9,3.4-2c2.7-3.8-1.3-7.8-4.5-11.1C82.6,268.4,82,267.2,83,265.8z"/>
	<path class="st1" d="M110.3,277.7L91.7,291l3.3,1.9l0,0c0,0,5.3-4,5.5-4.1s9,5,9.1,5.1c-0.1,0.1-0.5,6.9-0.5,6.9l0,0l3.6,2l1-23.3
		L110.3,277.7L110.3,277.7z M102.7,287.2c0.3-0.2,5.2-3.8,5.2-3.8c1-0.7,2-1.6,2.8-2.5c-0.3,1.4-0.4,2.8-0.5,4.3
		c0,0-0.4,5.7-0.5,6.1C109.4,291,103,287.3,102.7,287.2L102.7,287.2z"/>
	<path class="st1" d="M141.8,290.8c0,0-4.4,14.7-4.6,15.3c-0.2-0.5-7.8-19.1-7.8-19.1l0,0l-3.5-1.1v0.1l-6,19.8l3.3,1l0,0
		c0,0,4.4-14.8,4.7-15.3c0.2,0.5,7.9,19.1,7.9,19.1l0,0l3.5,1l6-20L141.8,290.8z"/>
	<path class="st1" d="M96.3,36l-1.6-2.2l-0.1,0.1L78.2,45.6l1.6,2.2l0,0c0,0,6.6-4.6,6.8-4.8C86.7,43.2,97,57.8,97,57.8l0,0l3-2.1
		l0,0c0,0-10.3-14.6-10.5-14.9C89.7,40.7,96.3,36,96.3,36z"/>
	<polygon class="st1" points="70.5,52.1 67.9,54.4 81.8,69.9 84.5,67.5 70.6,52 	"/>
	<polygon class="st1" points="41.5,164.6 41.5,164.6 20.7,165.3 20.9,169 41.7,168.3 	"/>
	<path class="st1" d="M71.9,70.1c-3.8-2.7-7.8,1.3-11.1,4.6c-3.4,3.4-4.6,4-6,3c-0.4-0.3-0.7-0.8-0.8-1.3c-0.3-1.8,1.1-4.1,1.8-5
		c2.8-4.1,5.1-3.6,6.6-2.8l0,0h0.1l1.8-3l-0.1-0.1l0,0c-3.4-2.1-7.3-0.5-10.7,4.4c-1.9,2.7-2.7,5.4-2.3,7.6c0.1,1.3,0.8,2.5,1.8,3.2
		c3.5,2.4,7.1-1.2,9.5-3.5c3.7-3.6,5.5-5.4,7.5-4c0.6,0.4,0.9,1,1,1.6c0.3,1.4-0.4,3.3-1.8,5.4c-0.7,0.9-3.1,4.1-5.9,4
		c-0.7-0.1-1.4-0.3-2-0.7l0,0h-0.1l-1.8,3l0.2,0.1l0,0c0.7,0.5,1.6,0.8,2.4,0.9c3.4,0.4,6.5-1.5,9.6-5.9
		C74.8,77,74.9,72.2,71.9,70.1z"/>
	<path class="st1" d="M50.2,96.1c0.5-1.3,0.8-2.7,0.9-4.1c0.1-1.9-0.9-3.7-2.5-4.6c-2.2-1.2-4.9-0.7-6.6,1.1c-1.2,1.2-2.2,2.6-3,4.2
		l0,0l-5.4,10l18.4,9.9l1.7-3.2l0,0c0,0-7.7-4.3-8-4.3c0.1-0.2,1.8-3.3,1.8-3.3c1.3-2.4,2.1-3.3,7.8-4.2l0,0l5.4-0.9l2.2-4l-7.3,1.3
		l0,0C53.6,94.2,51.8,94.9,50.2,96.1z M43.3,103.8c-0.2-0.1-5.5-3-5.7-3.1l3.7-6.9c0.5-1.1,1.3-2,2.2-2.7c0.9-0.8,2.1-0.9,3.2-0.4
		c1,0.6,1.6,1.6,1.5,2.7c0,0.2,0,0.3,0,0.5c-0.3,1.3-0.8,2.6-1.5,3.7C46.8,97.7,43.8,103,43.3,103.8z"/>
	<path class="st1" d="M46.7,205.9c-2.8-1.1-5.5,0-7,0.6l0,0L28.6,211l1.4,3.4l11-4.6l0,0c2-0.8,3.6-1.2,5.1-0.6
		c1.3,0.6,2.4,2,3.5,4.4c0.8,2.1,0.9,3.7,0.4,5.1c-0.8,1.8-2.7,2.6-4.1,3.1l0,0l-11.1,4.5l1.4,3.4l11.1-4.6l0,0
		c2.3-0.9,4.5-2,5.4-4.4c0.9-2.1,0.7-5-0.8-8.4S48.8,206.8,46.7,205.9z"/>
	<path class="st1" d="M50.2,115.8l-2.5-0.8l0,0l-4.2,15c-0.2,0-6.2-1.7-6.4-1.8c0-0.2,3.8-13.5,3.8-13.5l0,0l-2.6-0.8l0,0
		c0,0-3.7,13.3-3.8,13.5c-0.3,0-5.5-1.6-5.8-1.6c0-0.2,4-14.4,4-14.4l0,0l-2.6-0.8v0.2l-5,17.8l20,5.6L50.2,115.8z"/>
	<path class="st1" d="M43.3,147.1L24,134.3l-0.1,0.3l-0.5,3.4l14,8.9l0,0c0.9,0.5,1.9,1.1,2.9,1.6c-0.9,0.1-1.8,0.4-2.7,0.6l0,0
		h-0.1l0,0l-0.4,0.1l0,0l-15.8,4.5l-0.5,3.9l22-7L43.3,147.1z"/>
	<path class="st1" d="M45.3,192.8c0,0-15.2,2.5-15.8,2.6c0.3-0.4,13.6-15.6,13.6-15.6l0,0l-0.6-3.6h-0.1L22,179.7l0.6,3.4l0,0
		c0,0,15.3-2.6,15.8-2.7c-0.3,0.4-13.6,15.6-13.6,15.6l0,0l0.6,3.6l20.5-3.4L45.3,192.8z"/>
	<path class="st1" d="M122.5,21l-0.3,0.1l-3.6,1.7l-2,7.6l0,0c0,0.3-0.6,2.6-1,4.3l0,0c-1.2-0.7-2.4-1.4-3.6-2l0,0l-7.2-3.6l-4,1.9
		l0,0l14.1,6.8c0,0.1,3.7,8,3.7,8l0,0l3.3-1.5l0,0c0,0-3.7-7.9-3.7-8S122.5,21,122.5,21z"/>
	<polygon class="st1" points="198.3,294.3 194.8,294.7 197.8,315.4 201.4,314.9 198.5,294.3 	"/>
	<path class="st1" d="M213.5,308.8c0-0.2-1.8-6.1-1.9-6.4c0.3-0.1,13.5-4,13.5-4l0,0l-0.8-2.6l0,0c0,0-13.2,3.8-13.4,3.9
		c-0.1-0.2-1.6-5.5-1.7-5.8c0.2-0.1,14.4-4.2,14.4-4.2l0,0l-0.8-2.6l-0.1,0.1l-17.7,5.1l5.8,20l18.4-5.4l-0.8-2.6l0,0L213.5,308.8z"
		/>
	<path class="st1" d="M187.6,297.6c-2.7-2.5-6.3-2.5-9.2-2.5h-8.9v20.9h9.2c3.7,0,6.4-0.7,8.3-2.1c2.5-2.1,3.9-5.2,3.7-8.5
		C190.9,302.4,189.7,299.6,187.6,297.6z M173.1,297.7h5.2c2.2,0,4.3,0,6,1.3s2.7,3.2,2.7,6l0,0v0.2l0,0c0,2.7-0.7,4.7-2,6
		c-1.9,1.9-4.7,1.9-6.6,1.9h-5.3L173.1,297.7z"/>
	<path class="st1" d="M240.9,289.9l1.3,2.4l0,0c0,0,6.1-3.4,6.3-3.5c0.2,0.2,1.7,3.1,1.8,3.2c-1.2,2.1-3,3.9-5.1,5.2
		c-2.1,1.3-4.6,1.7-7,1.2c-2.1-0.6-3.8-2.1-4.7-4.1c-1.1-1.9-1.4-4.1-0.9-6.1c0.6-2.1,2.1-3.8,4.7-5.2c4.8-2.6,7.2-0.4,8.2,0.5l0,0
		v0.1l0.2-0.1l2.3-2.1l-0.1-0.1l0,0c-1.2-1.1-4.6-4.5-11.9-0.5c-3.5,1.9-5.8,4.4-6.7,7.3c-0.7,2.7-0.4,5.6,1,8.1
		c1.2,2.4,3.4,4.2,5.9,4.9c3.1,0.9,6.7,0.3,10.3-1.7c3.2-1.7,5.8-4.4,7.4-7.7l0,0v0l-3.8-6.9L240.9,289.9z"/>
	<path class="st1" d="M274.2,268.2c-1.4-2.4-3.7-4.1-6.4-4.8c-3.3-0.6-6.7,0.2-9.4,2.1c-2.9,1.7-5,4.4-5.8,7.6
		c-0.6,2.8,0.1,5.7,1.7,8.1c1.4,2.3,3.7,3.9,6.3,4.4c3.3,0.6,6.6-0.1,9.3-2c2.9-1.7,5-4.4,5.8-7.6
		C276.3,273.3,275.8,270.5,274.2,268.2z M272.5,276.2c-0.6,2.2-2,4.1-4,5.2c-4.1,2.7-8.6,1.8-11.2-2.2c-1.2-1.7-1.8-3.7-1.6-5.8
		c0.5-2.4,2-4.6,4.1-5.9c1.9-1.3,4.1-1.7,6.4-1.3c2.1,0.5,3.9,1.9,5,3.8C272.4,271.9,272.9,274.1,272.5,276.2L272.5,276.2z"/>
	<path class="st1" d="M159.6,12.3c-3.4,0.1-6.7,1.5-9.1,4.1c-1.8,2.2-2.7,5-2.4,7.8c0.2,2.6,1.5,5.1,3.4,6.8
		c2.7,2.2,6.1,3.2,9.6,2.8c7.3-0.5,11.9-5.2,11.4-11.6S166.9,11.8,159.6,12.3z M167.2,28.4c-1.6,1.7-3.8,2.7-6.2,2.8
		c-2.3,0.3-4.7-0.4-6.5-1.9c-1.5-1.4-2.4-3.3-2.6-5.3c-0.2-2.1,0.3-4.1,1.4-5.9c1.6-2,4-3.1,6.6-3.2c2.3-0.3,4.7,0.4,6.4,1.9
		c1.6,1.5,2.5,3.5,2.6,5.6C169.1,24.6,168.5,26.7,167.2,28.4L167.2,28.4z"/>
	<path class="st1" d="M199.4,17.1l0.4-2.7l-17.1-2.6l-0.1,0.1l-3,20.5l3.6,0.5l0,0c0,0,1.4-9,1.4-9.2l11.7,1.8l0,0l0.4-2.7l0,0
		c0,0-11.5-1.7-11.7-1.8c0-0.2,0.9-5.8,0.9-6C186,15,199.4,17.1,199.4,17.1z"/>
	<path class="st1" d="M285.4,57.7l-2.6-3l-0.1,0.1l-15.6,13.7l11.6,13.2l2-1.8l0,0c0,0-8.9-10.1-9-10.3
		C272,69.5,285.4,57.7,285.4,57.7z"/>
	<path class="st1" d="M240.6,41.2c-1.2,1.6-3.9,4-8.7,2c-2-0.7-3.7-2.2-4.6-4.1c-1.1-2.4-0.2-5.4,0.3-6.6c0.9-2.3,3.7-7.1,10.7-4.4
		c4.1,1.6,4.6,4.4,4.6,6.4l0,0v0.1l3.5,0.7v-0.2l0,0c0.2-4.1-2.4-7.5-7.1-9.4c-3.6-1.4-7.1-1.5-9.9-0.3c-2.4,1.1-4.3,3.2-5.3,5.7
		c-1.1,2.8-1.1,6,0.1,8.9c1.1,2.4,3.5,4.3,7.1,5.8c2.9,1.2,8.4,2.4,12.4-2.5l0,0l0.1-0.1l-3.1-2L240.6,41.2z"/>
	<polygon class="st1" points="299.7,74.6 299.5,74.6 282.4,86.2 284.4,89.2 301.7,77.6 	"/>
	<polygon class="st1" points="304.6,196.5 303.8,199.9 323.9,205.1 324.9,201.6 304.7,196.4 	"/>
	<path class="st1" d="M306.9,145.8c0,0,8.8-0.8,9-0.8c0,0.2,0.3,3.5,0.3,3.5c0,0.4,0.1,0.8,0.1,1.3c0,1.9-0.7,3.2-4.2,6.3l0,0
		l-4,3.6l0.4,4.4l5.5-4.9l0,0c1.5-1.2,2.6-2.8,3.2-4.6c0.9,4.1,3.1,6.3,6.2,6.1c2.4-0.2,4.3-2,4.8-4.3c0.3-1.6,0.4-3.3,0.1-4.9l0,0
		l-0.9-10.9h-0.2l-20.6,1.8L306.9,145.8z M325.9,152.9c0,0.7-0.1,1.4-0.3,2.1c-0.4,1.1-1.4,1.9-2.5,2c-1.2,0.1-2.4-0.6-3-1.8
		c-0.5-1.2-0.8-2.5-0.8-3.8c0,0-0.5-5.8-0.6-6.7c0.2-0.1,6.2-0.6,6.5-0.6c0,0.2,0.6,7.5,0.6,7.5C325.8,152,325.8,152.4,325.9,152.9
		L325.9,152.9z"/>
	<path class="st1" d="M264.2,39.7l-0.1,0.1l-20.3,10.7l3.1,2.3l0,0c0,0,5.8-3.2,5.9-3.3c0.1,0.1,8.2,6.1,8.4,6.2
		c0,0.2-1.4,6.8-1.4,6.8l0,0l3.3,2.4l4.2-22.9L264.2,39.7z M255.2,48.2l5.7-3.1c1.1-0.6,2.2-1.3,3.2-2.2c-0.4,1.4-0.8,2.8-1.1,4.2
		c0,0-1,4.8-1.2,5.9C261.4,52.8,255.5,48.4,255.2,48.2L255.2,48.2z"/>
	<path class="st1" d="M302.1,205.6l-1.6,3.2l0,0l4.3,5.3c-0.1,0.2-4.6,9.2-4.6,9.4l-7-0.1l0,0l-1.8,3.6l23.4-0.1l1.6-3.4l-14.3-18
		L302.1,205.6z M313.4,223.9c-1.4-0.2-2.9-0.3-4.4-0.3c0,0-5-0.2-6.1-0.2c0.2-0.4,3.5-7,3.6-7.3c0.3,0.3,4.1,5.1,4.1,5.1
		C311.4,222.2,312.4,223.1,313.4,223.9z"/>
	<path class="st1" d="M329.8,171.8l-20.6-2.9v0.1l-0.5,3.3l0,0c0,0,15.3,2.2,15.8,2.2l-17.7,10.7l0,0l-0.5,3.6l20.6,3l0.5-3.4l0,0
		l-15.8-2.3c0.4-0.3,17.6-10.6,17.6-10.6L329.8,171.8z"/>
	<path class="st1" d="M307,113.4c-2.4,1.2-4.2,3.3-5.1,5.8c-0.9,3.2-0.6,6.6,1,9.5c3.2,6.4,9.1,8.7,14.9,5.8s7.6-9,4.4-15.4
		S313,110.5,307,113.4z M319.9,120.3c1,2,1.3,4.3,0.6,6.4c-0.8,2.1-2.4,3.7-4.4,4.6c-1.9,1.1-4.1,1.3-6.2,0.7
		c-2.1-0.8-3.8-2.4-4.7-4.4c-1.1-2-1.3-4.3-0.6-6.4c0.7-2,2.2-3.6,4.1-4.4c1.8-1,3.9-1.4,5.9-1C316.9,116.4,318.8,118,319.9,120.3z"
		/>
	<path class="st1" d="M303.8,106.2l2.5-1.2l0,0c0,0-5.3-10.4-5.4-10.6c0.2-0.1,5.2-2.7,5.5-2.8l6.2,12.3l0,0l2.5-1.2l-7.8-15.5
		l-0.2,0.1l-18.5,9.3l1.7,3.2l0,0c0,0,8.1-4.1,8.3-4.2L303.8,106.2z"/>
	<polygon class="st1" points="282.8,252.5 287,247.8 291.3,251.4 287.2,256.3 	"/>
	<path class="st1" d="M214.9,85.7l6.5-0.4c-3.9-2-28.1-16.3-28.1-16.3l-2.1,3.1c0,0,20.5,12,23.4,13.8
		C214.7,85.7,214.8,85.7,214.9,85.7z"/>
	<path class="st1" d="M269.6,152.6c1.1,0.6,5.7,5.1,5.7,5.1l2-2.9c0,0-6-5.7-7.1-6.8c0,0,0-0.1,0-0.1l-0.6,4.5"/>
	<path class="st1" d="M265,148c0,0,1-1.2,2.1-2.9c-2.9-2.6-17.6-16.1-18.4-17.1l0.2,4.8L265,148z"/>
	<polygon class="st1" points="248.7,106 279.8,124.7 280.7,120.9 248.7,101.9 	"/>
	<path class="st1" d="M91.6,167c0-1.8,0-2.9-0.1-2.9c-0.2,0.3-0.4-4.4-0.1-6c-1.7,2.6-30.4,36.5-30.4,36.5l1.4,3.6
		c0,0,28.9-33.4,29.1-33.8C91.6,165.3,91.6,166.1,91.6,167z"/>
	<path class="st1" d="M141.2,252.5l-4,21.1l3.7,0.9L145,255c-0.1-0.1-0.3-0.2-0.4-0.3l-3.4-2.5L141.2,252.5z"/>
	<path class="st1" d="M273.7,200.5c2.1,1.4,6.5,6.4,6.5,6.4l1.7-3.2c0,0-7.1-7.1-7.5-8.2c0,0,0-0.1-0.1-0.1l-0.6,5L273.7,200.5z"/>
	<path class="st1" d="M260.1,222.9c0.9,0.5,5.3,10.8,5.3,10.8l2.9-2.3c0,0-4.6-9.6-5.2-10.7"/>
	<path class="st1" d="M228,234.1c0.3,0.5,9.1,25.3,9.1,25.3l3.3-2.2c0,0-8.2-22-7.7-22.9V234l-4.7-0.2L228,234.1z"/>
	<path class="st1" d="M207.6,260.2c1.2,5.7,2.9,12.7,2.9,12.7l3.8-1.5c0,0-2.8-12.6-3.3-13.7L207.6,260.2z"/>
	<path class="st1" d="M172,266.3c0,2.6-0.1,12.3-0.1,13c1.5,0,3.7,0.3,4.7,0c0.1-2.6-0.5-12.6-0.5-12.7L172,266.3z"/>
	<path class="st1" d="M151.2,83.1c1-0.8,4.4-3.8,4.4-3.8l-2.6-2c0,0-5,4.7-6.5,5.8c0.9,0,3.3,0,4.4,0L151.2,83.1z"/>
	<path class="st1" d="M195.6,78.9c-0.1,0.1-2.3,2.5-2.3,2.5s3.6,3.5,4.6,4.5c0.1,0,0.2,0,0.3-0.1l4.8-0.3
		C201.7,84.5,196.5,79.7,195.6,78.9z"/>
	<path class="st1" d="M128.6,85l0.5-0.1c3.7-2.2,27-15.9,27-15.9l-2.6-2.3c0,0-27,15.7-31.4,18.2L128.6,85z"/>
	<path class="st1" d="M91.5,106v-4l-24.4,14.5l-0.3,4l24.8-14.2L91.5,106z"/>
	<path class="st1" d="M91.5,133.3c-0.4,0.4-0.2-3.9,0-5.4c-0.9,1.6-34.5,28.5-34.5,28.5l0.3,5.1c0,0,33.7-27.5,34.3-28L91.5,133.3z"
		/>
	<path class="st1" d="M132.4,95.7c0,0-13.7,0.4-15.8,0.8c-0.1,0-0.6,18.9-0.6,18.9l16.8-0.5L132.4,95.7z M118.6,112.7l0.4-13.6
		l10.4-0.4l1,13.8L118.6,112.7z"/>
	<path class="st1" d="M285.5,157.1c-10.2,3.2-14.4,1.4-16.4,1.2c0.1-2,0.2-4,0.5-5.9l0.6-4.6c-0.2-0.8,0.2-8.3,0.2-8.4
		c-1.5,3.1-3.3,6-5.4,8.7c-4.1,5.1-15.2,12-16.1,11.2v-26.4l-0.2-5.1V85.5c-1.3,0-5.8,0.1-7.2,0.3c-0.2-0.6-0.3-1.2-0.2-1.8
		c-1.6,0-6.4,1-7.2,1.5l0.1-2.2c-0.6-0.2-10.8,2.2-12.2,1.8l-7,0.5c-3.9,0.3-7.8,0.3-11.7-0.1l-5,0.3c-11.7,0.9-23.2,6.7-24,7.8
		c-6.7-8-21.8-10.5-23.2-10.4s-4.8,0-4.8,0c-9.2,1.3-17.5,1.8-17.6,1.8l-6.9-0.2c-0.8,0.4-16.3-1.8-16.8-1.8
		c-0.1,1.4,0.1,1.5-0.1,2.6c-2.2-0.1-4.5-0.4-6.7-0.8v2c-1.6,0.2-6.4-0.9-6.5-0.8c0,3.4,0,15.7,0,15.7v4.2c0,0,0.1,21.5,0,21.6
		c-0.2,1.1-0.4,6.1,0,5.7v24.4c-0.4,1.1-0.2,6.8,0,6.4c0.2,0,0.1,30.4,0,33.2c-10,5.3-13.6,24.2-7.2,30.9
		c10.6,11.1,17.3,11.8,28.5,35.2c1.1-2.9,2.9-12.3,3.6-13.7c1.4,0.2,10.7,11.1,11,11.1c3.3-13.5-9.7-26.5-9.8-28
		c2-0.1,6.3-0.3,8.6-0.3c3.3,3.7,10.4,14.3,15,19.7l3.4,2.5c8.1,6,17.5,9.8,27.4,11.3l4,0.4c13.6-0.1,19.3-1,31.5-6.5l3.4-2.6
		c12.2-9.3-0.3-23.7-0.2-24c1.3-0.2,16.9,0.1,17.2,0.4l4.7,0.2c1.2-0.7,16-0.6,16-0.6v-7.3c2.5,0,5.7-0.5,11.4-3.5l3-2.2
		c10.1-9.6,9.6-17.5,10.6-20l0.7-5.1c-1.4-5-3.2-17.8-11.1-19.9C265.6,174.7,278.5,165.7,285.5,157.1z M241.5,88.3
		c0.4,0,3.3-0.3,3.4-0.2c0.2,2-0.2,63.8,0.1,71.4c-0.2,0.2-3.4-2.2-3.7-2.3C241,152.1,241.2,88.7,241.5,88.3L241.5,88.3z
		 M245.5,174.5c-0.8,0.8-4,1.4-4.2,1.4c0-1.1-0.1-2.4-0.1-3.5C242.8,172.8,244.2,173.5,245.5,174.5L245.5,174.5z M233.9,87.9
		c0.5,0,3.1-0.7,3.2-0.7c0.3,1.5,0.2,67.5,0.2,68.1c-1.1-0.3-2.3-0.4-3.4-0.2C233.9,149.6,233.9,88,233.9,87.9z M240,159.8
		c2.9,3.7,4,8.5,4.9,10.2c-9.9-4.1-21.8,3.1-22.4,4c-1.2-1.2-2.9-5.7-1.5-8.1C222.5,163.5,230.3,156.2,240,159.8z M237.7,176.7
		c-1.4,0.3-2.8,0.3-4.2,0.2c0-0.6-0.1-3.1-0.1-4c1.3-0.4,2.6-0.6,4-0.5C237.6,173.8,237.7,175.2,237.7,176.7L237.7,176.7z
		 M229.8,173.8c-0.2,1-0.3,1.9-0.4,2.9c-0.8,0-0.8,0.6-3.1-0.6C227.1,174.9,228.4,174.1,229.8,173.8L229.8,173.8z M176.6,96.3
		L176.6,96.3c0-0.1,0-0.2,0-0.3c13.5-10.9,44.8-4.2,53.5-9.1c0.4,2.1,0.2,67.4-0.2,68.8l0,0c0,0.1,0,0.2,0,0.3
		c-0.4,0.8-5.9,1.6-11,7.7c-1.4,1.7-2.4,3.7-2.9,5.8c-1.6,6.3-0.3,13.7,0.3,16.7c0.1,0.8,0.3,2.1,0.3,2.1c2.2,9.4,12.1,8.7,13.5,9
		c0.1,0.5,0,2.9,0,4.4h-0.1c0,0.1,0,0.2,0,0.3c-13.3-2.1-24.5-10.4-36.4-0.8c-2.2,2.3-3.8,5.1-4.7,8.2c-0.8,3-0.9,6.1-0.4,9.1h-0.1
		c0,0.1,0,0.2,0,0.3c-2.9,0.6-10.6,2.1-10.8,2.1C176.8,216.6,176,96.7,176.6,96.3z M205.8,230c-0.1,0-15.5-8.3-15.1-14.2
		c0.1-3.4,14.6,1.5,17.6,2.7C208.3,218.5,203.4,224.8,205.8,230z M167.3,228.3c0,0-0.7,1.5-0.7,1.6c-1.5,0.4-9.5-0.2-10.2-0.4
		s-2.7-2.9-3.1-3.3C154.1,225.4,163.6,227,167.3,228.3L167.3,228.3z M151.1,222.8c-0.5-0.5-2.9-2.7-2.7-2.9
		c7.1-1.7,21.9,3.4,22.7,3.9c-1.5,0.7-1.9,2-2.3,2.3C167.4,226,160.5,222.8,151.1,222.8L151.1,222.8z M168.1,233.4
		c2.4,2.6,11.5,2.6,17.5,0c1.1-0.4,16.5-0.8,16.5-0.8c-13.7,13.7-33.5,8.7-42.4-0.2C159.6,232.4,166.7,233.4,168.1,233.4
		L168.1,233.4z M184.3,228.1c3.3-0.6,8.4-1.3,10.8-1.2c0.4,0.2,4.9,2.8,4.8,2.9c-3.4,0-11.7,0.3-14.8,0.8
		C184.9,230.4,185,228.8,184.3,228.1L184.3,228.1z M191.5,223.9c-1.4,0.4-7.9,1.1-8.9,1.6c-0.8-0.7-2.6-2-2.7-2
		c2.2-1.1,8-2.2,9.5-2.5C190.2,221.9,190.9,222.9,191.5,223.9L191.5,223.9z M175.5,225.4c4.9,0,6.8,4.6,6.5,4.8
		c-2.7,2.1-8.4,2.7-11.9,0.1C170.6,227.6,172.8,225.6,175.5,225.4L175.5,225.4z M108.7,87.6c26,4.3,46-8.4,63.7,9.3
		c1,1.3,1.1,123.9,0.8,124.4c-11.7-3.7-20.4-4.8-27.6-3.8c-4.1-6.2-20.6-22.9-37.1-23.1C108.5,194.5,108.6,87.9,108.7,87.6z
		 M102.4,88.5c0.8,0.2,1.6,0.4,2.4,0.3v105.1c-0.8,0-1.7,0.1-2.5,0.3C102.4,193.1,102.3,88.7,102.4,88.5L102.4,88.5z M94.9,89.5
		c1,0.6,2.6,0.4,3.1,0.5c0.4,1.6,0.7,104.3,0.5,104.7c-1.2,0.3-2.5,0.7-3.6,1.3V89.5z M91.5,231.3c-10.2-6.4-0.6-9.4,0-9.3V231.3z
		 M124.6,254.2c-3.2-3.1-6.5-6-10-8.7c-0.1,0-2.7,11.6-2.7,11.6c-2.4-11.2-16.8-22.5-16.7-22.7c2.7-0.4,10.6-0.6,17.3-0.6
		C113.9,233.7,123.5,244.4,124.6,254.2L124.6,254.2z M95,230c0-2.4-0.1-7.1-0.1-8.9c1.1-0.4,2.3-0.6,3.5-0.6c0.4,0.8,0,7,0,7.1
		c2.5,0.3,19.6-0.6,20.7-0.2c0.6,0.2,3.5,2.1,3.4,2.4C119,229.7,100.1,230.5,95,230z M102.3,220.2c3.5,0,13.3,4.2,13.3,4.3
		c-1.2,0-12.7,0.4-13.2,0C102.2,223.1,102.2,221.6,102.3,220.2L102.3,220.2z M196.1,261c-32.3,8.2-51.9-7.7-63.2-24.8
		c-9.8-13.5-31.5-25.8-48.1-14.2c-3.5-33.2,35.9-30.1,55.6-6.3c0.3,0.2,13.2,16.9,18.9,21c22.1,15.6,41,3.9,46.9-2.8
		C208.9,235.7,227,251.3,196.1,261L196.1,261z M209.1,230.2c-0.9-0.9-1.4-2.2-1.1-3.4c0.4,0,36.2,0.8,36.9,1.3
		c0.1,0.9,0.2,1.9,0.1,2.8C245,230.8,209.3,230.2,209.1,230.2L209.1,230.2z M208.6,224.2c0-0.4,0.3-2.7,1.6-3.4
		c2.3,0.5,15.5,3.3,15.6,3.3C224.9,224.3,211.1,224.2,208.6,224.2L208.6,224.2z M190.5,211.8c9.8-34.8,63.6,21.9,72.1-22.4
		c2.7,0.1,9,5,8.5,7.9C261.4,246.2,214.4,212.2,190.5,211.8L190.5,211.8z M234,203v-5.8c1.1-0.2,2.3-0.6,3.3-1.1
		c0.1,0-0.1,5.6-0.1,7.6C236.1,203.6,235,203.4,234,203z M241.2,195c1.2-0.6,3.5-2.1,3.8-2c0,2.2,0,10.2,0,11.4
		c-1.2,0.2-2.4,0.2-3.6,0.1C241.5,202.8,241.3,195.9,241.2,195L241.2,195z M248.9,203.6c0-3.5,0-10.9,0.2-12.8
		c1.4-0.6,6.8-2.6,10.3-2.2C260.3,196.5,252.5,203.9,248.9,203.6L248.9,203.6z M270.1,190.7c-10.9-10.8-26.1-1.2-29.4,0.5
		c-9.4,4.8-18.2,3.5-20.9-2.2c-1.1-2.9-2.2-10.7-1.5-14.3c14,13.6,27-1,40.1,1C261.7,177.3,266.2,175.9,270.1,190.7L270.1,190.7z
		 M250.8,172.9c-2-1.6-3.9-6.4-4.5-9.2c3.6,0.4,17.5-9.3,20-11.6c-0.2,3-0.6,5.9-1.3,8.8c3.7,0.6,7.4,0.8,11.1,0.8
		C276.2,161.7,265.8,175.3,250.8,172.9z"/>
	<polygon class="st1" points="112.1,212.2 117.2,214 116.6,215.9 109.2,213.3 112.9,202.8 115.1,203.6 	"/>
	<polygon class="st1" points="129.6,213.1 124.7,209.8 123.4,211.8 127.9,214.7 126.8,216.4 122.3,213.4 120.7,215.8 125.8,219.2 
		124.8,220.8 117.7,216.2 123.8,207 130.7,211.4 	"/>
	<polygon class="st1" points="128.8,224.3 127.1,222.7 133.7,216.3 131.3,213.9 132.7,212.5 139,219 137.6,220.4 135.3,218 	"/>
	<polygon class="st1" points="139,236.9 137.4,235.2 143.9,228.9 141.6,226.5 143,225.1 149.3,231.5 147.9,232.9 145.6,230.5 	"/>
	<polygon class="st1" points="147.2,238.9 143.9,242.6 142.2,241 149.6,232.8 151.3,234.3 148.5,237.5 151.7,240.3 154.5,237.2 
		156.2,238.8 148.9,247 147.1,245.4 150.5,241.8 	"/>
	<polygon class="st1" points="163,245.4 157.8,242.6 156.7,244.7 161.5,247.2 160.6,249 155.8,246.4 154.4,249 159.9,251.8 
		158.9,253.6 151.5,249.6 156.7,239.8 163.9,243.7 	"/>
	<polygon class="st1" points="181.6,249.5 175.7,249.2 175.6,251.5 181,251.8 180.9,253.7 175.5,253.4 175.3,256.3 181.5,256.6 
		181.4,258.6 173,258.2 173.5,247.1 181.7,247.5 	"/>
	<polygon class="st1" points="204.7,241.9 199.8,245.2 201.1,247.2 205.6,244.2 206.6,245.8 202.2,248.8 203.8,251.2 208.9,247.8 
		210,249.4 202.9,254.1 196.8,244.9 203.6,240.3 	"/>
	<path class="st1" d="M191.6,253l2.9-0.8l0,0c0.7-0.3,1.6,0,1.9,0.7c0,0.1,0.1,0.1,0.1,0.2c0.3,1-0.2,1.7-1.3,2l0,0l-2.7,0.8
		L191.6,253z M190.8,258.3l4.5-1.2l0,0c2.2-0.6,2.6-1.1,3.1-1.9c0.5-0.7,0.6-1.6,0.3-2.5c-0.2-1.2-1.2-2.1-2.3-2.2
		c0.8-0.6,1-1.6,0.7-2.5c-0.3-1.1-1.4-2.6-4-1.9l0,0l-5.2,1.4L190.8,258.3z M190.5,248.9l2.6-0.7l0,0c1-0.3,1.7-0.2,2,0.7
		s-0.4,1.4-1.2,1.6l0,0l-2.6,0.7L190.5,248.9z"/>
	<path class="st1" d="M165.4,249.5l1-2.8l2.7,0.9l0,0c0.7,0.1,1.2,0.8,1.1,1.6c0,0.1-0.1,0.2-0.1,0.3c-0.3,1.1-1,1.2-2.1,0.9
		L165.4,249.5z M161.2,254.6l2.1,0.7l1.4-4.1l2.3,0.8l0,0c1.6,0.6,1.6,1.1,1.1,2.6c-0.3,0.7-0.5,1.4-0.5,2.2l0,0l2.4,0.8l0.1-0.3
		l0,0c-0.4-0.3-0.3-0.7,0.2-2.2c0.6-2,0.4-2.4-0.4-3.1c1.2,0,2.2-0.9,2.4-2c0.5-1.6-0.3-3.4-2-3.9c-0.1,0-0.2-0.1-0.3-0.1l0,0
		l-5.3-1.8L161.2,254.6z"/>
	<polygon class="st1" points="208.6,211.4 214,212.7 213.5,214.7 205.9,212.8 208.5,202 210.8,202.6 	"/>
	<polygon class="st1" points="217.3,215.9 215.1,215.4 217.7,204.6 219.9,205.1 	"/>
	<path class="st1" d="M225.7,212.1l4.5,1l-1.4,5.8l-1.5-0.4l0.1-1.4l0,0c-1,0.9-2.5,1.2-3.8,0.8c-2.6-0.6-4.5-3-3.6-6.8
		c0.7-3,3-5.3,6.6-4.5c3.3,0.8,4.1,3.3,3.9,4.8l0,0l-2.2-0.5l0,0c-0.1-1.1-0.9-2.1-2-2.4c-1.6-0.4-3.4,0.4-4,3.1
		c-0.7,2.9,0.7,4.1,2.2,4.5c1.3,0.3,2.7-0.5,3.2-1.8l0,0l-2.5-0.6L225.7,212.1z"/>
	<polygon class="st1" points="234.6,214.7 234,219.6 231.6,219.3 233,208.3 235.3,208.6 234.8,212.7 239.1,213.3 239.6,209.1 
		241.9,209.4 240.6,220.4 238.3,220.1 238.9,215.2 	"/>
	<polygon class="st1" points="247.6,221.1 245.3,220.8 246.4,211.7 243.1,211.3 243.3,209.4 252.3,210.5 252.1,212.5 248.7,212 	"/>
	<path class="st1" d="M125.4,106.9l-0.6-2.3l0,0c-0.1-0.6-0.3-1.4-0.5-2l0,0c-0.1,0.6-0.2,1.4-0.4,2l0,0l-0.6,2.3H125.4z M123,108.8
		l-0.6,2.8h-2.2l2.8-10.8h2.7l2.9,10.7h-2.2l-0.7-2.8L123,108.8z"/>
	<path class="st1" d="M104.8,219.3l0.2,3.7h10.8c-2.4-1.3-4.8-2.5-7.3-3.4L104.8,219.3z"/>
	<path class="st1" d="M213.8,96.5c3.9-0.5,7.7-1.4,11.4-2.7l0,0v2.4l0,0c-3.6,1.2-7.4,2.1-11.2,2.5L213.8,96.5z"/>
	<path class="st1" d="M211.5,98.9c-1.7,0.2-3.4,0.3-5.1,0.4l0,0v-2.2l0,0c1.5-0.1,3.4-0.2,5-0.4L211.5,98.9z"/>
	<path class="st1" d="M204.6,99.5l-6.4,0.3l0,0v-2.1l0,0c2-0.1,4.3-0.2,6.4-0.4V99.5z"/>
	<path class="st1" d="M196,99.9c-1.8,0.1-3.5,0.2-5.1,0.4l0,0l-0.1-2.2l0,0c1.7-0.2,3.4-0.3,5.2-0.4L196,99.9z"/>
	<path class="st1" d="M188.5,100.5c-2.9,0.4-5.7,1.2-8.4,2.5l0,0v-2.1l0,0c2.6-1.3,5.5-2.1,8.4-2.5L188.5,100.5z"/>
	<path class="st1" d="M210,101.5c5.2-0.5,10.5-1.4,15.6-2.4l0,0l0.1,2.5l0,0c-5.2,1.2-10.5,2-15.8,2.4L210,101.5z"/>
	<path class="st1" d="M193.4,105.1c-4.1,0.2-10.8,1-13.3,2l0,0v-2.1l0,0c3.1-1.4,8.1-1.8,13.6-2.2L193.4,105.1z"/>
	<path class="st1" d="M207.3,104.2c-3.7,0.3-7.8,0.6-11.2,0.8l0,0l0.2-2.5l0,0c3-0.2,7.7-0.5,11.2-0.8L207.3,104.2z"/>
	<path class="st1" d="M220.1,105.2c1.8-0.3,3.6-0.6,5.5-1.1l0,0l0.1,2.5l0,0c-1.7,0.4-3.6,0.8-5.6,1.1V105.2z"/>
	<path class="st1" d="M184.6,111.1c-1.5,0.2-3,0.6-4.5,1.1l0,0v-2.1l0,0c1.5-0.6,3.1-1.1,4.7-1.3L184.6,111.1z"/>
	<path class="st1" d="M193.7,110.2c-2.7,0.2-4.9,0.4-7,0.7l0,0l0.1-2.5l0,0c2-0.2,4.4-0.4,6.9-0.6V110.2z"/>
	<path class="st1" d="M209.1,109c-4.5,0.4-8.7,0.8-13,1.1l0,0l0.1-2.5l0,0c3.8-0.2,8.1-0.4,12.8-0.9L209.1,109z"/>
	<path class="st1" d="M217.9,108c-2.1,0.3-4.3,0.6-6.6,0.8l0,0l-0.1-2.3l0,0c1.9-0.2,4.4-0.5,6.5-0.8L217.9,108z"/>
	<path class="st1" d="M220.8,110.8c1.6-0.2,3.1-0.6,4.8-0.9l0,0l0.1,2.4l0,0c-1.4,0.4-3.2,0.7-4.9,0.9L220.8,110.8z"/>
	<path class="st1" d="M185.2,116.7c-1.7,0.2-3.4,0.6-5.1,1.2l0,0v-2l0,0c1.7-0.7,3.4-1.2,5.2-1.5L185.2,116.7z"/>
	<path class="st1" d="M198.7,115.5c-4.3,0.3-7.8,0.6-11,1l0,0l0.1-2.5l0,0c3.1-0.3,6.8-0.6,11.1-0.8L198.7,115.5z"/>
	<path class="st1" d="M208.2,114.8l-7.3,0.6l0,0v-2.3l0,0c2.3-0.1,4.7-0.3,7.2-0.6L208.2,114.8z"/>
	<path class="st1" d="M218.8,113.5c-2.8,0.4-5.5,0.8-8.6,1l0,0v-2.3l0,0c2.6-0.3,5.6-0.7,8.5-1.1L218.8,113.5z"/>
	<path class="st1" d="M222.3,115.8c1-0.2,2.1-0.4,3.2-0.7l0,0l0.1,2.5l0,0c-0.9,0.2-2.4,0.4-3.3,0.6L222.3,115.8z"/>
	<path class="st1" d="M188.1,121.7c-2.7,0.2-5.4,0.7-8,1.5l0,0v-2.1l0,0c2.6-1,5.4-1.6,8.3-1.8L188.1,121.7z"/>
	<path class="st1" d="M200.5,120.7c-3.6,0.2-6.8,0.5-9.8,0.8l0,0l0.1-2.5l0,0c2.9-0.2,6.1-0.4,9.7-0.6L200.5,120.7z"/>
	<path class="st1" d="M214.2,119.4c-3.7,0.4-7.5,0.8-11.5,1.1l0,0l0.1-2.3l0,0c3.6-0.3,7.4-0.6,11.4-1.2L214.2,119.4z"/>
	<path class="st1" d="M220.5,118.5c-1.4,0.3-2.8,0.5-4.3,0.7l0,0l0.1-2.4l0,0c1.4-0.2,3-0.4,4.2-0.7L220.5,118.5z"/>
	<path class="st1" d="M212.8,122.5c3.9-0.5,8.4-1.1,12.8-2.1l0,0l0.1,2.4l0,0c-4.3,1-8.6,1.6-12.9,2L212.8,122.5z"/>
	<path class="st1" d="M194.8,126.3c-7.1,0-12.6,1.1-14.7,2l0,0v-2l0,0c3.4-1.6,8.5-1.9,15-2.3L194.8,126.3z"/>
	<path class="st1" d="M210.4,125.1c-4.3,0.4-8.9,0.8-13,1.1l0,0l0.2-2.4l0,0c3.7-0.2,8.3-0.5,12.9-1L210.4,125.1z"/>
	<path class="st1" d="M218.6,127.1c2.2-0.3,4.6-0.8,7-1.3l0,0l0.1,2.5l0,0c-2.1,0.5-4.4,0.9-6.9,1.3L218.6,127.1z"/>
	<path class="st1" d="M189.8,132.2c-4.8,0.4-8.1,1-9.7,1.6l0,0v-2l0,0c2.4-1.1,5.9-1.7,9.9-2L189.8,132.2z"/>
	<path class="st1" d="M209.9,130.6c-6.3,0.6-12.3,1-17.8,1.5l0,0l0.3-2.5l0,0c5-0.4,10.5-0.6,17.4-1.4L209.9,130.6z"/>
	<path class="st1" d="M216.6,129.9c-1.4,0.1-3.1,0.3-4.6,0.4l0,0v-2.3l0,0c1.5-0.2,3-0.4,4.5-0.6L216.6,129.9z"/>
	<path class="st1" d="M220.9,132c1.5-0.3,3.1-0.6,4.7-0.9l0,0l0.1,2.5l0,0c-1.4,0.3-3.1,0.6-4.7,0.9L220.9,132z"/>
	<path class="st1" d="M193.7,137.2c-6.5,0.5-11.7,1-13.6,2l0,0v-2.1l0,0c3.2-1.5,7.8-1.9,13.6-2.3L193.7,137.2z"/>
	<path class="st1" d="M212.2,135.6c-5.3,0.6-10.5,1-15.7,1.4l0,0l0.1-2.4l0,0c4.5-0.3,9.9-0.6,15.7-1.3L212.2,135.6z"/>
	<path class="st1" d="M218.8,134.8c-1.5,0.2-2.6,0.4-4.3,0.6l0,0v-2.3l0,0c1.5-0.2,2.7-0.4,4.2-0.7L218.8,134.8z"/>
	<path class="st1" d="M211.6,138.1c4.3-0.5,8.9-1.2,13.9-2.3l0,0l0.1,2.5l0,0c-4.6,1-9.2,1.7-13.9,2.2L211.6,138.1z"/>
	<path class="st1" d="M199.3,141.5c-9.1,0.4-16.7,1.2-19.1,2.3l0,0v-2l0,0c4.1-2,10.6-2.1,19.2-2.6L199.3,141.5z"/>
	<path class="st1" d="M209.3,140.6c-2.5,0.2-5.1,0.5-7.6,0.7l0,0V139l0,0c2.4-0.2,4.9-0.4,7.6-0.6V140.6z"/>
	<path class="st1" d="M212.4,143.3c4.2-0.5,8.4-1.2,13.2-2.2l0,0l0.1,2.5l0,0c-4.4,1-8.9,1.7-13.5,2.1L212.4,143.3z"/>
	<path class="st1" d="M191.2,147.4c-5.3,0.5-9.4,1-11,1.7l0,0V147l0,0c2.7-1.2,6.6-1.8,11.2-2.1L191.2,147.4z"/>
	<path class="st1" d="M209.7,145.9c-5.6,0.5-11.3,0.9-16.2,1.3l0,0l0.2-2.4l0,0c5-0.4,9.6-0.6,16.1-1.3L209.7,145.9z"/>
	<path class="st1" d="M208,148.7c5.9-0.5,11.8-1.4,17.6-2.7l0,0l0.1,2.5l0,0c-5.8,1.2-11.7,2.1-17.6,2.5V148.7z"/>
	<path class="st1" d="M190.1,152.3c-5,0.5-8.4,1-9.9,1.6l0,0v-2.1l0,0c2.5-1.1,5.9-1.7,10.1-2L190.1,152.3z"/>
	<path class="st1" d="M192.5,149.6c1.7-0.1,3.2-0.2,5.1-0.3l0,0l-0.1,2.3l0,0c-1.9,0.1-3.4,0.3-5.1,0.4L192.5,149.6z"/>
	<path class="st1" d="M205.4,151.2l-5.6,0.4l0,0l0.2-2.3l0,0c1.8-0.1,3.7-0.2,5.6-0.4L205.4,151.2z"/>
	<path class="st1" d="M213.8,152.7c3.8-0.5,7.4-1.1,11.8-2.1l0,0l0.1,2.5l0,0c-3.9,0.9-7.9,1.5-11.9,1.9L213.8,152.7z"/>
	<path class="st1" d="M195.2,156.6c-7.1,0.6-13,1.1-15.1,2l0,0v-2l0,0c3.5-1.6,8.6-2,15.2-2.4L195.2,156.6z"/>
	<path class="st1" d="M211.3,155.3c-4.6,0.4-9.2,0.8-13.6,1.1l0,0l0.1-2.4l0,0c4.2-0.3,8.2-0.6,13.6-1.2L211.3,155.3z"/>
	<path class="st1" d="M210.8,158.2c4.5-0.5,9.5-1.3,12.9-2l0,0l0.1,2.5l0,0c-4.2,0.9-8.5,1.6-12.8,1.9L210.8,158.2z"/>
	<path class="st1" d="M198.9,161.5c-8.8,0.7-16.4,1.2-18.8,2.3l0,0v-2l0,0c4.1-1.9,10.6-2.1,19-2.6L198.9,161.5z"/>
	<path class="st1" d="M208.5,160.7l-7,0.6l0,0l0.2-2.2l0,0c2.4-0.2,4.1-0.3,6.8-0.6L208.5,160.7z"/>
	<path class="st1" d="M215.5,164.9c-4.1,0.4-8.7,0.9-13.1,1.2l0,0l0.1-2.3l0,0c4.3-0.3,9.1-0.7,14.2-1.5L215.5,164.9z"/>
	<path class="st1" d="M189.1,167.2c-4.3,0.4-7.6,0.9-9,1.5l0,0v-2l0,0c2.9-1.1,5.9-1.8,9-1.9V167.2z"/>
	<path class="st1" d="M200,166.3c-3,0.2-6.2,0.4-8.6,0.7l0,0l0.2-2.5l0,0c2.5-0.2,5.2-0.3,8.5-0.5L200,166.3z"/>
	<path class="st1" d="M194.7,171.7c-6.9,0.5-12.6,1.1-14.6,2l0,0v-2l0,0c3.4-1.6,8.3-2,14.6-2.4V171.7z"/>
	<path class="st1" d="M203.2,171.1c-2,0.1-4.4,0.3-6.2,0.4l0,0l0.1-2.3l0,0c1.9-0.1,3.9-0.3,6.3-0.4L203.2,171.1z"/>
	<path class="st1" d="M213.5,170.2c-2.6,0.3-5.3,0.5-8,0.8l0,0l0.1-2.3l0,0c2.7-0.2,5.4-0.5,8.4-0.9L213.5,170.2z"/>
	<path class="st1" d="M213.5,175.2c-5.3,0.6-11,1-16.2,1.4l0,0l-0.1-2.4l0,0c4.7-0.3,10.1-0.6,16.2-1.4L213.5,175.2z"/>
	<path class="st1" d="M195,176.7c-7.1,0.6-12.9,1.1-14.9,2.1l0,0v-2.1l0,0c3.4-1.6,8.3-2,14.8-2.3L195,176.7z"/>
	<path class="st1" d="M199.3,182.1c-9.1,0.7-16.7,1.2-19.1,2.3l0,0v-2l0,0c4.1-1.9,10.4-2.1,19-2.6L199.3,182.1z"/>
	<path class="st1" d="M206,181.6c-1.7,0.1-2.9,0.2-4.6,0.4l0,0v-2.4l0,0c1.6-0.1,2.8-0.2,4.5-0.3L206,181.6z"/>
	<path class="st1" d="M213.2,180.9c-1.8,0.2-3.6,0.3-5.4,0.5l0,0v-2.3l0,0c1.8-0.2,3.5-0.4,5.4-0.6L213.2,180.9z"/>
	<path class="st1" d="M193.8,187.8c-6.7,0.5-11.8,1-13.7,1.9l0,0v-2.1l0,0c3.2-1.5,7.7-1.8,13.6-2.2L193.8,187.8z"/>
	<path class="st1" d="M195.9,185.3c1.4-0.1,2-0.2,3.6-0.3l0,0l-0.1,2.4l0,0c-1.4,0.1-2.1,0.2-3.5,0.3L195.9,185.3z"/>
	<path class="st1" d="M201.4,184.9c1.5-0.1,3-0.2,4.6-0.3l0,0v2.3l0,0c-1.6,0.1-3.1,0.3-4.6,0.4L201.4,184.9z"/>
	<path class="st1" d="M216.3,185.8c-2.8,0.4-5.5,0.7-8.5,0.9l0,0l0.1-2.3l0,0c2.7-0.2,5.3-0.6,8.2-1L216.3,185.8z"/>
	<path class="st1" d="M190.1,192.8c-4.8,0.4-8.5,0.9-10,1.6l0,0v-2.1l0,0c2.5-1.2,5.9-1.7,10-2V192.8z"/>
	<path class="st1" d="M192.1,190.2c1.1-0.1,2.7-0.2,4.4-0.3l0,0v2.4l0,0c-1.7,0.1-3.3,0.2-4.4,0.4L192.1,190.2z"/>
	<path class="st1" d="M208.5,191.3c-3.6,0.3-6.4,0.6-9.8,0.9l0,0v-2.4l0,0c3.2-0.2,6.1-0.4,9.8-0.8L208.5,191.3z"/>
	<path class="st1" d="M215.9,190.6c-1.8,0.2-3.6,0.4-5.4,0.6l0,0l-0.1-2.3l0,0c1.6-0.2,3.2-0.4,5-0.6L215.9,190.6z"/>
	<path class="st1" d="M217.8,195.6c-1.9,0.2-5.5,0.6-7.2,0.8l0,0l-0.3-2.3l0,0c1.8-0.2,5-0.4,6.9-0.7L217.8,195.6z"/>
	<path class="st1" d="M196.7,197.4c-7.8,0.6-14.4,1.4-16.6,2.4l0,0v-2.2l0,0c4.5-1.5,8.7-2.1,16.8-2.5L196.7,197.4z"/>
	<path class="st1" d="M208.4,196.2c-2.9-0.5-5.9-0.3-8.8,0.6l0,0l0.1-1.9l0,0c2.6-0.2,7.2-0.5,8.6-0.6L208.4,196.2z"/>
	<path class="st1" d="M218.1,198c2.8-0.4,4.5-0.8,7.5-1.5l0,0l0.1,2.5l0,0c-1,0.2-1.4,0.3-2.5,0.5L218.1,198z"/>
	<path class="st1" d="M190.5,202.8c-4.9,0.5-8.7,1-10.4,1.7l0,0v-2.1l0,0c2.9-1.3,7.1-1.8,12-2.2L190.5,202.8z"/>
	<path class="st1" d="M188.2,207.7c-3.6,0.4-6.7,0.9-8.1,1.5l0,0v-2l0,0c2.9-1.2,6-1.9,9.2-2L188.2,207.7z"/>
	<path class="st1" d="M186.9,213.2c-2.3,0.1-4.6,0.6-6.7,1.3l0,0v-2.1l0,0c2.3-0.8,4.6-1.4,7.1-1.7L186.9,213.2z"/>
	<path class="st1" d="M123.7,126.7c-2.8,0.2-5.7,0.5-8.4,0.9l0,0l-0.1-2.2l0,0c2.8-0.5,5.6-0.9,8.4-1L123.7,126.7z"/>
	<path class="st1" d="M162.4,128.7c2.3,0.9,4.6,1.9,6.7,3.1l0,0v2l0,0c-2.1-0.9-4.4-1.8-6.5-2.5L162.4,128.7z"/>
	<path class="st1" d="M160.5,130.5c-5-1.6-10.1-2.7-15.3-3.4l0,0l-0.2-2.2l0,0c5.2,0.6,10.3,1.7,15.2,3.2L160.5,130.5z"/>
	<path class="st1" d="M142.1,126.8c-5.2-0.5-10.4-0.6-15.7-0.3l0,0v-2.3l0,0c5.2-0.2,10.4-0.1,15.5,0.4L142.1,126.8z"/>
	<path class="st1" d="M123.2,131.7c-2.6,0.2-5.3,0.7-7.9,1l0,0l-0.1-2.2l0,0c2.7-0.5,5.4-0.9,8.1-1L123.2,131.7z"/>
	<path class="st1" d="M155.9,132c4.6,1,9.1,2.6,13.3,4.7l0,0v2.2l0,0c-4.3-1.9-8.7-3.4-13.3-4.5V132z"/>
	<path class="st1" d="M153.6,133.8c-5.1-1.2-10.4-1.9-15.6-2.1l0,0v-2.2l0,0c5.3,0.3,10.5,1,15.7,2.2L153.6,133.8z"/>
	<path class="st1" d="M135.5,131.5c-3.2-0.1-6.8,0-10,0.1l0,0v-2.3l0,0c3.1-0.2,6.4-0.2,10,0V131.5z"/>
	<path class="st1" d="M141.5,136.4c-8.7-0.7-17.5-0.4-26.1,0.9l0,0l-0.2-2.2l0,0c6-1.2,16-1.7,26.4-0.8L141.5,136.4z"/>
	<path class="st1" d="M158.9,137.4c3.5,0.9,7,2.2,10.3,3.9l0,0v2.2l0,0c-3.3-1.5-6.7-2.7-10.1-3.7L158.9,137.4z"/>
	<path class="st1" d="M156.5,139.1c-4.1-1.1-8.3-1.9-12.5-2.4l0,0v-2.2l0,0c4.2,0.5,8.4,1.2,12.6,2.2L156.5,139.1z"/>
	<path class="st1" d="M124.1,141.7c-2.9,0.2-5.9,0.5-8.7,0.9l0,0l-0.2-2.2l0,0c2.9-0.6,5.9-0.9,8.9-1.1L124.1,141.7z"/>
	<path class="st1" d="M156,142c4.6,1,9,2.6,13.1,4.7l0,0v2.2l0,0c-4.3-1.8-8.6-3.3-13.1-4.4V142z"/>
	<path class="st1" d="M153.4,143.6c-4.5-1-9-1.6-13.6-1.9l0,0l0.1-2.2l0,0c4.5,0.3,9,1,13.4,1.9L153.4,143.6z"/>
	<path class="st1" d="M137.5,141.6c-3.8-0.2-7.6-0.2-11.4,0l0,0v-2.3l0,0c3.8-0.2,7.6-0.1,11.4,0.1L137.5,141.6z"/>
	<path class="st1" d="M124.3,121c-3.1,0.1-6.1,0.6-9,0.9l0,0l-0.2-2.1l0,0c3.1-0.6,6.2-1,9.3-1.1L124.3,121z"/>
	<path class="st1" d="M161.1,122.6c2.8,0.8,5.5,1.9,8.1,3.2l0,0v2.2l0,0c-2.6-1.1-5.3-2-8-2.8L161.1,122.6z"/>
	<path class="st1" d="M158.9,124.5c-2.3-0.7-4.6-1.2-7-1.7l0,0l0.2-2.4l0,0c2.3,0.4,4.5,1,6.8,1.6L158.9,124.5z"/>
	<path class="st1" d="M149.4,122.3c-3.3-0.5-6.7-0.8-10-1l0,0v-2.4l0,0c3.4,0.2,6.7,0.6,10.1,1.1L149.4,122.3z"/>
	<path class="st1" d="M136.7,121.1c-3.1-0.1-6.6-0.1-9.6-0.1l0,0v-2.5l0,0c3.1-0.1,6.3-0.1,9.7,0.1L136.7,121.1z"/>
	<path class="st1" d="M159.8,116.8c3.2,0.9,6.4,2.2,9.4,3.7l0,0v2.4l0,0c-3.1-1.4-6.3-2.6-9.6-3.6L159.8,116.8z"/>
	<path class="st1" d="M157.5,118.7c-4-1.1-8-1.9-12.1-2.4l0,0l0.2-2.4l0,0c4.1,0.5,8.1,1.3,12.1,2.4L157.5,118.7z"/>
	<path class="st1" d="M143.2,116c-2.6-0.3-5.1-0.3-7.7-0.4l0,0l-0.1-2.4l0,0c2.6,0.1,5.2,0.2,7.9,0.5L143.2,116z"/>
	<path class="st1" d="M124.6,162.1c-2.8,0-5.8-0.1-8.9,0l0,0l-0.1-2.2l0,0c1.7,0.1,4.9,0,9-0.1L124.6,162.1z"/>
	<path class="st1" d="M160.2,163.1c3.1,0.8,6.1,1.8,9.1,3.1l0,0v2.1l0,0c-3.1-1.1-6.1-2.1-9.1-2.8L160.2,163.1z"/>
	<path class="st1" d="M158,165c-5.1-1.1-10.2-1.9-15.4-2.3l0,0l0.2-2.3l0,0c5.1,0.4,10.2,1.1,15.2,2.3V165z"/>
	<path class="st1" d="M140.2,162.5c-4.4-0.3-8.8-0.4-13.6-0.4l0,0l0.1-2.3l0,0c4,0,8.7,0,13.8,0.3L140.2,162.5z"/>
	<path class="st1" d="M136.6,157.7c-6.4-0.3-13.2-0.3-20.9-0.1l0,0l-0.1-2.5l0,0c3.1,0.2,11-0.4,21,0L136.6,157.7z"/>
	<path class="st1" d="M157.9,157.8c3.9,0.9,7.7,2.1,11.3,3.7l0,0v2.2l0,0c-3.7-1.3-7.6-2.3-11.4-3.2L157.9,157.8z"/>
	<path class="st1" d="M154.7,159.7c-5.2-1-10.4-1.7-15.7-2l0,0l0.1-2.6l0,0c5.3,0.3,10.5,0.9,15.7,1.9L154.7,159.7z"/>
	<path class="st1" d="M127.8,151.9c-3.8,0-7.8,0.1-12.1,0.2l0,0l-0.1-2.3l0,0c2.1-0.1,6.3-0.3,12.1-0.3L127.8,151.9z"/>
	<path class="st1" d="M150.7,151.3c6.4,1,12.6,2.8,18.6,5.3l0,0v2.1l0,0c-6-2.2-12.2-3.9-18.4-5L150.7,151.3z"/>
	<path class="st1" d="M148.3,153.3c-6-0.9-12.1-1.4-18.2-1.3l0,0l-0.1-2.3l0,0c6.1,0,12.2,0.5,18.2,1.4L148.3,153.3z"/>
	<path class="st1" d="M139.8,147c-8.1-0.5-16.2-0.5-24.2-0.1l0,0l-0.1-2.3l0,0c8.1-0.4,16.2-0.4,24.2,0.2L139.8,147z"/>
	<path class="st1" d="M161.6,148.5c2.6,0.8,5.2,1.7,7.6,2.8l0,0v2l0,0c-2.6-1-5.1-1.8-7.6-2.4L161.6,148.5z"/>
	<path class="st1" d="M142.8,144.9c5.6,0.6,11.1,1.6,16.5,3l0,0v2.3l0,0c-5.4-1.4-10.9-2.4-16.4-2.9L142.8,144.9z"/>
	<path class="st1" d="M131.7,167.3c-5-0.1-10.2-0.1-16,0.1l0,0l-0.1-2.6l0,0c2.5,0.1,8.6-0.2,16.1-0.1L131.7,167.3z"/>
	<path class="st1" d="M153.6,166.7c5.4,0.9,10.7,2.6,15.7,4.8l0,0v2.3l0,0c-5.1-1.8-10.3-3.3-15.6-4.3L153.6,166.7z"/>
	<path class="st1" d="M150.4,168.9c-5.3-0.8-10.7-1.3-16.1-1.5l0,0l-0.2-2.7l0,0c5.5,0.1,11,0.6,16.5,1.4L150.4,168.9z"/>
	<path class="st1" d="M123.3,172.5c-2.4,0-5,0-7.6,0.1l0,0l-0.1-2.5l0,0c1.5,0.1,4.1,0,7.6,0L123.3,172.5z"/>
	<path class="st1" d="M157.7,172.9c4,0.9,7.9,2.2,11.6,3.9l0,0v2.3l0,0c-3.8-1.4-7.7-2.6-11.7-3.6L157.7,172.9z"/>
	<path class="st1" d="M139.2,170.2c5.4,0.3,10.7,1,16,2.1l0,0v2.5l0,0c-5.3-1-10.6-1.7-15.9-2L139.2,170.2z"/>
	<path class="st1" d="M125.7,170c3.3,0,7.1,0,11.3,0.1l0,0l0.1,2.5l0,0c-3.6-0.2-7.4-0.3-11.2-0.2L125.7,170z"/>
	<path class="st1" d="M121.7,177.9c-2,0-3.9,0.2-6,0.2l0,0l-0.1-2.5l0,0c1.2,0,3.3,0,5.9,0L121.7,177.9z"/>
	<path class="st1" d="M155.4,177.8c4.8,1,9.5,2.5,13.9,4.5l0,0v2.3l0,0c-4.6-1.7-9.2-3.1-14-4.1L155.4,177.8z"/>
	<path class="st1" d="M141,175.9c3.9,0.3,7.9,0.8,11.7,1.5l0,0v2.6l0,0c-3.9-0.7-7.8-1.2-11.8-1.5L141,175.9z"/>
	<path class="st1" d="M123.4,175.6c4.2-0.1,9.4-0.1,15.1,0.2l0,0v2.5l0,0c-4.7-0.3-9.7-0.4-15-0.3L123.4,175.6z"/>
	<path class="st1" d="M128.2,183.1c-3.9,0-8,0.2-12.4,0.3l0,0l-0.1-2.6l0,0c2.1,0.1,6.7-0.1,12.5-0.2L128.2,183.1z"/>
	<path class="st1" d="M148.5,181.9c7.2,0.9,14.1,2.8,20.8,5.6l0,0v2.3l0,0c-6.7-2.4-13.7-4.2-20.8-5.3V181.9z"/>
	<path class="st1" d="M145.6,184c-4.6-0.5-9.8-0.8-14.8-0.9l0,0l-0.1-2.5l0,0c4.5,0.1,9.5,0.3,14.9,0.9V184z"/>
	<path class="st1" d="M124.8,193.2c-2.9,0-6,0.1-9.1,0.1l0,0l-0.1-2.4l0,0c1.7,0.1,5-0.1,9.2-0.1V193.2z"/>
	<path class="st1" d="M153.3,192.7c5.5,1,10.8,2.6,15.9,4.9l0,0v2.3l0,0c-5.2-2-10.5-3.5-15.9-4.6V192.7z"/>
	<path class="st1" d="M150.9,194.8c-4.4-0.7-8.7-1.1-13.3-1.4l0,0v-2.4l0,0c4.5,0.2,8.9,0.7,13.3,1.4L150.9,194.8z"/>
	<path class="st1" d="M135.3,193.3c-2.7-0.1-5.8-0.2-8.4-0.2l0,0l-0.1-2.5l0,0c2.6,0,5.1,0,8.5,0.1L135.3,193.3z"/>
	<path class="st1" d="M128.1,188.2c-3.9,0-7.9,0.1-12.3,0.1l0,0l-0.1-2.4l0,0c2.1,0.1,6.5-0.1,12.4-0.1L128.1,188.2z"/>
	<path class="st1" d="M150.6,187.2c6.4,0.9,12.7,2.7,18.6,5.4l0,0v2.3l0,0c-6-2.3-12.3-4-18.6-5.2V187.2z"/>
	<path class="st1" d="M148.3,189.5c-1.4-0.2-3.2-0.4-4.6-0.5l0,0v-2.6l0,0c1.6,0.2,3.1,0.4,4.7,0.6L148.3,189.5z"/>
	<path class="st1" d="M141.4,188.8c-1.7-0.1-3.4-0.2-5.1-0.3l0,0l-0.1-2.5l0,0c1.9,0.1,3.1,0.2,5.1,0.4L141.4,188.8z"/>
	<path class="st1" d="M134,188.3c-1.3-0.1-2.5-0.1-3.8-0.1l0,0l-0.1-2.5l0,0c1.3,0,2.5,0,3.9,0V188.3z"/>
	<path class="st1" d="M154.5,198c5.1,1,10,2.5,14.7,4.5l0,0v2.3l0,0c-4.8-1.7-9.7-3.2-14.6-4.3L154.5,198z"/>
	<path class="st1" d="M152.7,200.2c-1.4-0.3-2.8-0.5-4.2-0.7l0,0v-2.6l0,0c1.4,0.2,2.8,0.4,4.2,0.7L152.7,200.2z"/>
	<path class="st1" d="M146.7,199.3c-1.4-0.2-2.7-0.3-4-0.4l0,0l-0.1-2.6l0,0c1.3,0.1,2.8,0.3,4.1,0.4L146.7,199.3z"/>
	<path class="st1" d="M140.6,198.6c-4.3-0.3-7.9-0.5-14.4-0.5l0,0l-4.2-2.4l0,0c6.1,0,12.8,0,18.5,0.4L140.6,198.6z"/>
	<path class="st1" d="M158.1,208.9c3.8,0.9,7.6,2.2,11.2,3.7l0,0v2.1l0,0c-3.6-1.3-7.4-2.4-11.1-3.3L158.1,208.9z"/>
	<path class="st1" d="M155.9,211c-2.4-0.5-4.6-1-7-1.3l0,0l-0.1-2.6l0,0c2.3,0.4,4.6,0.8,7,1.2L155.9,211z"/>
	<path class="st1" d="M146.5,209.4c-2.6-0.3-5.2-0.6-7.5-0.8l0,0l-3.2-2.7l0,0c3.1,0.2,6.8,0.4,10.6,0.9L146.5,209.4z"/>
	<path class="st1" d="M147.9,202c7.4,0.9,14.6,2.8,21.4,5.7l0,0v2.1l0,0c-6.9-2.5-14-4.3-21.3-5.3L147.9,202z"/>
	<path class="st1" d="M145.4,204.2c-4.2-0.5-8.7-0.7-12.8-0.9l0,0l-3.6-2.5l0,0c4.5,0.1,10,0.3,16.2,0.9L145.4,204.2z"/>
	<path class="st1" d="M142.1,94.8c-2.2,0.2-4.5,0.4-6.8,0.6l0,0v2.3l0,0c2.3-0.2,4.5-0.4,6.6-0.6L142.1,94.8z"/>
	<path class="st1" d="M158,97.9c4,0.8,7.8,2.3,11.3,4.5l0,0v-2.2l0,0c-3.4-2.2-7.1-3.8-11-4.7L158,97.9z"/>
	<path class="st1" d="M156.1,95.1c-1.5-0.3-3.1-0.4-4.6-0.5l0,0l-0.1,2.4l0,0c1.5,0.1,3,0.2,4.4,0.5L156.1,95.1z"/>
	<path class="st1" d="M149.3,94.5c-1.6,0-3.3-0.1-5,0.1l0,0l-0.1,2.3l0,0c1.7-0.1,3.3-0.2,5-0.2L149.3,94.5z"/>
	<path class="st1" d="M141.5,99c-2,0.1-4,0.2-6,0.4l0,0v2.3l0,0c2.1-0.2,4-0.3,6-0.4V99z"/>
	<path class="st1" d="M162.9,105.2c2.2,0.9,4.3,2,6.4,3.3l0,0V106l0,0c-2-1.2-4-2.3-6.1-3.3L162.9,105.2z"/>
	<path class="st1" d="M160.9,101.7c-2.1-0.8-4.3-1.4-6.5-1.9l0,0l-0.3,2.3l0,0c2.3,0.5,4.6,1.2,6.7,2.1L160.9,101.7z"/>
	<path class="st1" d="M151.9,99.5c-2.6-0.4-5.3-0.5-8-0.5l0,0v2.4l0,0c2.6,0,5.2,0.1,7.8,0.5L151.9,99.5z"/>
	<path class="st1" d="M142.6,103.8c-2.5,0-4.9,0.1-7.2,0.3l0,0v2.3l0,0c2.4-0.3,4.8-0.4,7.2-0.3V103.8z"/>
	<path class="st1" d="M160.1,109c3.2,0.9,6.3,2.2,9.1,3.9l0,0v-2.3l0,0c-2.7-1.8-5.7-3.2-8.8-4.2L160.1,109z"/>
	<path class="st1" d="M158.2,105.9c-1.4-0.4-2.9-0.7-4.4-1l0,0l-0.2,2.5l0,0c1.5,0.2,2.9,0.5,4.3,0.9L158.2,105.9z"/>
	<path class="st1" d="M151.5,104.5c-2.1-0.3-4.2-0.5-6.3-0.6l0,0l-0.1,2.3l0,0c2,0.2,4,0.4,6.1,0.7L151.5,104.5z"/>
	<path class="st1" d="M145.9,108.9c-3.5-0.5-7-0.6-10.4-0.4l0,0v2.2l0,0c3.4-0.2,6.9-0.1,10.3,0.4L145.9,108.9z"/>
	<path class="st1" d="M161.8,114.6c3.2,1.1,5.6,1.7,7.5,3l0,0v-2.1l0,0c-2.3-1.4-4.7-2.4-7.3-3.2L161.8,114.6z"/>
	<path class="st1" d="M160.1,111.8c-1.8-0.5-3.3-1-5.3-1.4l0,0l-0.3,2.4l0,0c1.8,0.4,3.6,0.8,5.4,1.4L160.1,111.8z"/>
	<path class="st1" d="M153,110c-1.7-0.3-3.2-0.6-4.8-0.8l0,0l-0.2,2.2l0,0c1.6,0.2,3.2,0.5,4.8,0.8L153,110z"/>
	<path class="st1" d="M264.2,75.3c-23-23.4-54.2-37-87.1-37.9c-0.7-1.3-1.4-2.6-2.2-3.8c-0.2-0.3-0.5-0.3-0.8-0.5
		c-0.1-0.1-0.2-0.2-0.3-0.2h-0.1c-0.6-0.2-1.2-0.2-1.4,0.1c-0.8,1.4-1.5,2.9-2.1,4.5C101,38.9,45.9,96.4,47.4,165.8
		c1.5,68.6,57.7,123.3,126.3,123c69.8,0,126.7-56.4,126.7-125.7C300.4,130.2,287.4,98.6,264.2,75.3z M180,52.3
		c1.9-0.6,10.2,1.5,11.3,1.5c0.1,0-10,3.7-10,3.9c1.7,0,6.5,0.6,7.3,0.6c0.3,0.1-2.7,3.2-3.6,4.2c-3.3-0.9-6.6-2.1-9.7-3.5
		C178,55.2,179.4,53,180,52.3z M174.6,60.8c3.1,3.5,12.6,15.2,12.6,15.3c-1.1-0.3-11.4-4.8-12.6-5.5V60.8z M173,41.5
		c0.1,0,0.6,13.5,0.5,15.3c0,0.1-3.3-3.8-4.4-5C169.8,48.9,172.2,44.4,173,41.5z M155.7,54.2c2.9,0.4,15.8,5.3,16.9,5.4
		c0,2-10,14.6-10.1,14.5c0-2.2,0.7-8.5,0.5-10.3C163,63.1,155.7,54.5,155.7,54.2L155.7,54.2z M173.9,284
		c-74,0.5-121.5-62.9-121.5-120.7c0-40.9,26.6-113.2,116.3-121.9c0,0-0.2,0.9-0.5,2.1c-0.8,2.3-1.4,4.3-1.8,5.5
		c-3.6,0.9-16.3,1.9-16.7,2v0.1h-0.1c0.4,1.5,10,13.5,10.4,14.8c0.3,0.9-1,14.8-1,14.9c4-1.4,13.5-6.8,15-7.2c1.1-0.3,16.6,7,16.9,7
		c0,0,0-0.1,0-0.1h0.1c-0.1-2.3-3.1-14.4-2.7-15.8s10.9-12.8,10.9-13c-3.6-1-14.7-2.2-15.8-2.8c-0.3-0.4-0.6-0.8-0.9-1.2
		c-0.8-1.5-2-3.9-3.3-6.4c0,0,0-0.1,0-0.1c82,7,116,72.5,116,121.7C295.1,231,240.8,283.6,173.9,284L173.9,284z"/>
</g>
</svg>
